<?xml version="1.0" standalone="no"?>
<!DOCTYPE svg PUBLIC "-//W3C//DTD SVG 20010904//EN"
 "http://www.w3.org/TR/2001/REC-SVG-20010904/DTD/svg10.dtd">
<svg version="1.0" xmlns="http://www.w3.org/2000/svg"
 width="1920.000000pt" height="1729.000000pt" viewBox="0 0 1920.000000 1729.000000"
 preserveAspectRatio="xMidYMid meet">

<g transform="translate(0.000000,1729.000000) scale(0.100000,-0.100000)"
fill="#000000" stroke="none">
<path d="M8915 17273 c-237 -16 -570 -54 -785 -89 -85 -14 -171 -27 -190 -30
-43 -6 -203 -38 -425 -85 -126 -27 -281 -66 -405 -102 -74 -22 -158 -45 -186
-52 -59 -15 -320 -96 -414 -130 -36 -13 -105 -37 -155 -54 -128 -44 -220 -78
-270 -101 -24 -11 -48 -20 -53 -20 -5 0 -36 -12 -68 -26 -69 -30 -170 -73
-199 -85 -68 -28 -425 -194 -450 -209 -16 -10 -68 -38 -115 -63 -169 -89 -266
-141 -305 -164 -22 -12 -51 -28 -65 -35 -14 -7 -81 -45 -149 -85 -67 -40 -125
-73 -127 -73 -8 0 -89 -54 -109 -72 -11 -10 -56 -42 -100 -70 -224 -144 -585
-400 -696 -493 -85 -72 -123 -103 -196 -162 -39 -32 -127 -107 -195 -167 -67
-60 -162 -143 -210 -185 -47 -42 -87 -80 -87 -86 -1 -5 -68 -73 -151 -150 -82
-77 -151 -145 -152 -152 -2 -6 -66 -80 -143 -164 -77 -84 -165 -180 -195 -213
-73 -81 -250 -293 -250 -300 0 -6 -131 -178 -151 -199 -8 -7 -41 -53 -74 -101
-33 -49 -97 -140 -142 -203 -46 -63 -83 -117 -83 -120 0 -3 -22 -35 -48 -72
-40 -53 -199 -306 -310 -491 -22 -37 -56 -105 -91 -180 -12 -25 -37 -74 -57
-110 -189 -348 -514 -1066 -514 -1137 0 -10 -12 -50 -26 -88 -34 -88 -185
-545 -214 -645 -12 -41 -35 -129 -51 -195 -16 -66 -40 -163 -53 -215 -100
-401 -203 -1029 -227 -1383 -4 -73 -13 -193 -19 -267 -5 -74 -10 -227 -10
-340 l1 -205 130 133 c72 74 133 132 135 129 2 -2 0 -76 -6 -163 -5 -87 -10
-213 -10 -279 l0 -119 128 134 c71 74 166 178 212 230 47 52 146 158 221 235
237 244 371 388 378 406 3 10 78 91 166 181 170 174 323 334 392 410 l42 46
23 -33 c29 -41 123 -166 199 -267 33 -42 59 -81 59 -87 0 -6 15 -28 33 -48 19
-21 66 -81 105 -133 39 -52 91 -122 116 -154 26 -33 46 -63 46 -67 0 -10 123
-182 162 -227 16 -19 39 -50 53 -70 46 -71 141 -202 258 -355 64 -84 117 -158
117 -164 0 -6 6 -16 13 -22 12 -9 15 21 21 177 13 324 16 373 36 528 11 83 22
176 25 205 3 30 14 99 25 154 11 55 22 120 25 145 4 25 15 81 26 125 11 44 22
93 25 109 8 48 75 299 83 315 5 9 11 39 15 68 3 28 16 77 27 110 11 32 22 63
23 68 11 49 97 285 127 353 16 35 29 68 29 73 0 10 27 73 66 155 13 28 24 55
24 59 0 17 96 216 173 360 44 83 102 193 129 245 43 83 97 173 164 274 144
218 296 427 392 541 9 11 27 35 40 54 28 41 110 139 198 236 34 39 86 97 115
130 29 33 62 67 73 75 12 9 57 51 101 95 44 44 139 134 210 200 71 66 142 133
157 149 42 42 161 136 174 136 6 0 18 7 25 17 26 31 324 251 464 342 33 22 65
43 70 48 42 34 290 183 305 183 4 0 59 30 121 66 153 89 443 234 468 234 11 0
57 18 104 39 46 22 101 46 123 54 21 8 71 27 109 42 118 46 447 153 500 163
28 5 75 17 105 25 98 28 252 65 375 91 214 44 403 74 755 118 134 17 1037 17
1190 0 248 -28 438 -56 680 -102 150 -28 335 -72 486 -116 45 -13 95 -24 110
-24 34 0 240 -65 364 -115 47 -19 128 -50 180 -70 52 -21 128 -52 168 -71 40
-19 82 -34 93 -34 28 0 405 -190 480 -241 14 -10 56 -34 95 -54 76 -39 75 -38
192 -112 45 -29 84 -53 86 -53 2 0 46 -28 97 -63 52 -34 107 -68 123 -75 26
-12 102 -66 116 -83 3 -3 48 -37 100 -76 52 -39 108 -84 124 -102 17 -17 34
-31 40 -31 15 0 125 -87 176 -140 25 -25 99 -95 165 -155 66 -61 143 -132 172
-159 29 -27 55 -47 57 -45 3 2 15 33 29 69 128 343 147 372 231 340 34 -13 70
-70 101 -160 31 -90 42 -263 27 -410 -6 -52 -9 -96 -8 -98 4 -4 80 110 93 141
33 76 175 216 239 237 46 16 126 7 158 -17 94 -71 141 -315 103 -533 -8 -47
-13 -87 -11 -89 2 -3 17 5 32 16 62 45 125 40 161 -13 28 -40 32 -60 33 -179
1 -126 -9 -215 -36 -325 -13 -52 -22 -98 -20 -102 2 -3 34 14 71 38 104 68
160 56 195 -43 16 -47 16 -277 0 -378 -6 -38 -14 -90 -17 -115 -3 -25 -11 -61
-17 -80 -13 -40 -39 -166 -40 -195 -1 -24 19 -81 83 -237 27 -65 49 -124 49
-131 0 -7 4 -17 9 -22 18 -20 174 -467 186 -533 3 -17 9 -42 14 -55 44 -114
173 -718 186 -867 3 -36 8 -72 10 -80 9 -34 36 -297 39 -388 11 -307 20 -441
27 -436 5 3 15 19 24 37 8 18 61 93 117 167 56 74 113 151 127 171 14 20 92
123 173 230 80 107 156 212 167 233 12 20 54 81 95 134 166 220 289 385 376
504 40 54 73 98 73 98 7 0 637 -632 637 -637 -1 -5 134 -141 298 -303 164
-162 374 -373 467 -469 l168 -175 -6 240 c-4 133 -10 255 -13 272 -4 18 -3 32
2 32 5 0 68 -56 139 -124 l130 -124 3 177 c2 97 -2 248 -8 336 -6 88 -15 223
-20 300 -6 77 -17 185 -25 240 -8 55 -20 141 -25 190 -26 223 -102 627 -175
915 -24 97 -43 179 -69 305 -8 39 -24 104 -36 145 -37 125 -180 563 -194 595
-8 17 -22 57 -31 90 -25 85 -56 176 -71 205 -7 14 -38 86 -69 160 -31 74 -79
182 -107 240 -27 58 -53 114 -57 125 -18 47 -159 331 -227 457 -41 75 -74 141
-74 147 0 37 -333 569 -530 849 -25 35 -52 73 -60 86 -47 72 -123 178 -139
193 -10 10 -45 54 -77 97 -90 120 -104 139 -169 218 -53 65 -257 299 -295 338
-8 9 -58 63 -110 120 -280 307 -748 745 -942 882 -26 18 -48 38 -48 43 0 10
-42 46 -128 110 -100 75 -188 139 -254 186 -43 30 -111 77 -150 106 -40 28
-134 91 -208 139 -74 49 -139 94 -145 100 -5 6 -41 30 -80 52 -38 23 -74 45
-80 49 -5 4 -23 15 -40 23 -16 8 -60 34 -97 57 -37 24 -69 43 -72 43 -3 0 -65
33 -139 73 -73 40 -185 99 -248 131 -62 32 -121 64 -129 72 -12 10 -341 164
-435 203 -11 4 -47 20 -80 34 -155 67 -204 87 -217 87 -8 0 -18 4 -23 9 -11
10 -114 49 -285 107 -58 19 -127 44 -155 54 -63 24 -331 108 -399 125 -28 8
-91 25 -141 39 -488 142 -1318 289 -1750 311 -60 3 -164 9 -230 15 -178 14
-1003 10 -1240 -7z m1155 -534 c63 -5 115 -11 116 -12 3 -4 51 -242 85 -427
24 -129 60 -314 83 -435 14 -71 27 -139 29 -150 5 -30 27 201 27 281 0 38 11
186 25 329 14 143 25 286 25 318 0 41 4 59 15 63 14 6 215 -13 222 -20 2 -2
-3 -73 -11 -157 -8 -85 -14 -177 -15 -205 0 -49 -23 -338 -41 -518 -5 -48 -7
-116 -3 -150 4 -47 -42 -676 -50 -682 -9 -7 -260 11 -271 20 -9 7 -23 57 -35
126 -23 136 -44 243 -76 400 -13 63 -35 174 -49 245 -14 72 -36 189 -50 260
-14 72 -29 153 -33 180 -7 47 -8 44 -19 -65 -7 -63 -12 -156 -13 -206 -1 -51
-12 -204 -25 -340 -14 -137 -27 -314 -31 -394 -3 -80 -9 -153 -12 -164 -5 -16
-12 -18 -66 -12 -33 3 -86 6 -118 6 l-59 0 0 98 c0 53 11 212 25 352 14 140
25 282 25 315 0 33 11 195 25 360 14 165 30 368 37 452 l11 152 56 -4 c31 -3
108 -10 171 -16z m-1132 -21 c-3 -7 -2 -40 2 -73 4 -33 11 -83 14 -112 l6 -51
-77 -6 c-81 -7 -295 -32 -349 -42 l-31 -6 14 -96 c7 -53 18 -148 23 -211 15
-170 13 -165 74 -157 28 4 101 11 162 16 61 5 118 12 127 15 17 7 22 -16 33
-150 3 -44 8 -83 11 -87 7 -12 -71 -25 -236 -38 -62 -5 -116 -11 -119 -15 -3
-3 0 -47 7 -98 36 -263 41 -305 41 -345 l0 -44 58 6 c31 3 86 8 122 12 36 3
112 12 169 20 57 8 106 12 109 10 7 -8 36 -235 31 -241 -6 -5 -191 -30 -479
-65 -97 -11 -192 -23 -212 -26 l-35 -6 -12 76 c-6 42 -11 93 -11 113 0 19 -6
81 -14 137 -8 55 -19 142 -25 191 -5 50 -22 191 -36 315 -14 124 -35 295 -46
381 -11 86 -24 207 -29 270 -6 63 -14 141 -20 173 -5 33 -8 61 -6 63 6 6 130
23 206 28 64 5 259 28 355 43 95 14 178 14 173 0z m-1593 -292 c-6 -50 -31
-219 -80 -531 -13 -88 -27 -187 -30 -220 l-6 -60 45 -45 c26 -25 87 -97 138
-160 50 -63 100 -124 109 -135 27 -30 110 -135 144 -180 16 -21 36 -46 45 -55
42 -43 162 -202 156 -207 -4 -4 -12 -8 -19 -9 -7 -1 -61 -18 -121 -38 -60 -20
-113 -36 -117 -36 -4 0 -33 33 -63 73 -31 39 -98 124 -149 189 -51 64 -125
158 -166 210 -40 51 -76 94 -80 96 -4 1 -13 -36 -20 -83 -11 -73 -11 -91 2
-132 9 -26 36 -115 62 -198 25 -82 55 -174 66 -203 20 -57 18 -72 -9 -72 -10
0 -64 -16 -121 -35 -56 -19 -107 -33 -112 -30 -4 3 -14 25 -20 48 -13 49 -51
166 -115 362 -26 77 -47 145 -48 150 -3 12 -89 285 -121 380 -13 39 -46 144
-75 235 -66 212 -97 308 -126 394 -13 38 -21 73 -18 77 2 4 19 11 37 14 17 4
71 20 120 36 48 16 91 29 97 29 5 0 30 -66 55 -147 25 -82 66 -213 91 -293 26
-80 53 -166 61 -192 15 -50 33 -64 33 -25 0 12 9 81 19 152 30 194 62 429 72
523 10 93 13 102 37 103 9 0 60 15 112 33 52 18 101 33 108 33 9 0 11 -14 7
-51z m5347 -222 c35 -14 78 -32 95 -40 18 -7 77 -30 130 -50 54 -20 121 -46
148 -59 28 -12 73 -30 100 -40 28 -10 54 -22 59 -27 6 -4 18 -8 28 -8 10 0 18
-5 18 -11 0 -12 -80 -210 -90 -222 -5 -6 -193 62 -265 98 -54 26 -138 54 -147
49 -4 -3 -8 -10 -8 -17 0 -10 -78 -208 -117 -297 -8 -19 -26 -63 -39 -98 l-23
-62 37 -15 c20 -9 79 -32 132 -51 52 -20 109 -44 127 -53 l32 -16 -24 -55
c-13 -30 -33 -81 -46 -112 -12 -32 -25 -58 -28 -58 -9 0 -101 35 -141 53 -54
25 -165 67 -177 67 -6 0 -16 -15 -23 -32 -7 -18 -23 -56 -36 -85 -13 -28 -24
-56 -24 -60 0 -5 -31 -84 -70 -177 -38 -92 -70 -172 -70 -177 0 -18 -53 -119
-62 -119 -6 0 -40 13 -76 29 -37 15 -88 37 -114 47 -27 11 -48 23 -48 28 0 8
97 259 120 311 20 45 60 149 60 156 0 5 11 32 24 61 14 29 44 103 67 163 23
61 46 114 50 119 5 6 9 16 9 24 0 7 9 32 19 55 18 38 33 76 79 194 120 305
209 513 219 513 6 0 40 -12 75 -26z m-7026 -506 c85 -47 155 -133 244 -295 19
-34 32 -64 30 -66 -5 -5 -144 -80 -192 -104 -15 -8 -32 -12 -37 -9 -5 4 -30
44 -56 91 -53 99 -89 143 -123 156 -43 16 -105 1 -145 -36 -34 -32 -37 -38
-37 -92 0 -41 6 -68 20 -91 11 -18 33 -57 48 -85 16 -29 60 -108 99 -177 38
-69 90 -163 115 -210 25 -47 57 -105 71 -130 13 -25 48 -88 77 -140 68 -124
95 -159 137 -176 46 -20 106 -3 151 42 33 33 35 37 29 92 -5 55 -39 130 -125
271 l-21 35 115 63 c63 35 116 63 118 63 2 0 9 -15 16 -32 19 -51 33 -79 62
-129 16 -25 42 -79 59 -120 26 -63 31 -88 32 -164 1 -80 -2 -97 -26 -145 -79
-160 -290 -278 -447 -250 -97 17 -121 30 -194 103 -62 63 -87 99 -184 277 -62
113 -117 212 -122 220 -5 8 -31 58 -58 110 -27 52 -84 158 -127 235 -81 145
-125 266 -125 339 0 48 20 129 43 171 23 44 104 118 172 157 80 46 90 49 160
57 99 11 164 1 221 -31z m8664 -300 c47 -29 105 -67 130 -84 25 -17 55 -34 68
-38 12 -4 22 -11 22 -15 0 -5 -20 -54 -45 -110 -25 -56 -45 -108 -45 -117 0
-16 -42 -120 -87 -214 -37 -77 -34 -72 -93 -210 -29 -69 -57 -132 -61 -140 -5
-8 -31 -69 -60 -135 -92 -215 -160 -370 -168 -385 -23 -43 -121 -282 -121
-295 0 -22 -5 -20 -79 29 -36 24 -85 54 -108 67 -26 15 -43 31 -43 42 0 10 15
51 34 90 78 166 87 190 78 196 -5 3 -40 26 -78 50 -38 24 -96 61 -128 83 -33
21 -63 38 -67 38 -4 0 -14 -9 -22 -20 -8 -12 -54 -66 -102 -121 l-88 -99 -31
23 c-17 12 -64 42 -103 65 -65 38 -88 64 -65 74 4 2 27 26 51 53 24 28 70 77
101 110 31 33 87 96 125 140 78 92 188 217 225 256 74 79 114 124 200 223 52
61 100 118 105 127 6 10 84 100 175 202 124 139 169 183 180 177 8 -5 53 -32
100 -62z m-10052 -488 c24 -33 57 -74 73 -92 40 -44 89 -114 89 -126 0 -6 22
-34 48 -64 26 -29 76 -91 111 -138 35 -47 77 -101 93 -120 17 -19 56 -71 88
-115 79 -107 171 -228 226 -295 54 -65 129 -163 217 -281 l64 -86 -110 -82
c-61 -45 -113 -78 -116 -73 -3 5 -18 24 -33 43 -69 86 -174 221 -229 294 -116
156 -235 309 -296 384 -35 41 -63 80 -63 86 0 6 -19 33 -41 60 -23 28 -67 84
-97 125 -31 41 -70 91 -87 110 -18 19 -63 76 -100 125 -37 50 -76 98 -87 108
-10 10 -18 21 -18 26 0 8 209 171 219 171 3 0 26 -27 49 -60z m11389 -527
c226 -226 248 -260 248 -388 0 -119 -34 -182 -180 -334 -146 -151 -206 -185
-326 -185 -69 0 -79 -2 -73 -15 4 -9 9 -40 12 -68 10 -108 -46 -198 -259 -421
-113 -118 -189 -210 -189 -229 0 -7 -4 -13 -8 -13 -11 0 -192 186 -192 197 0
6 14 29 30 51 17 23 30 45 30 49 0 3 65 72 144 153 151 154 186 204 186 267 0
44 -14 69 -79 136 l-45 47 -247 -252 -246 -253 -65 63 c-36 35 -80 75 -97 89
l-31 26 90 94 c50 53 90 100 90 106 0 6 69 81 153 167 329 337 629 651 738
772 63 70 117 127 121 128 4 0 91 -84 195 -187z m-12130 -355 c71 -64 193
-179 269 -255 76 -76 231 -221 343 -323 113 -102 258 -237 324 -302 l119 -116
-74 -79 c-40 -43 -78 -87 -84 -97 -6 -11 -15 -21 -20 -23 -5 -2 -66 49 -134
112 -307 283 -421 387 -423 384 -1 -2 -46 -50 -100 -106 l-98 -103 154 -153
c163 -162 353 -340 368 -345 19 -8 6 -27 -85 -119 l-94 -96 -76 69 c-42 38
-76 73 -76 79 0 6 -48 53 -106 105 -59 52 -112 100 -118 105 -6 6 -58 53 -116
105 -58 52 -175 162 -260 246 -85 83 -180 173 -210 199 -30 26 -66 60 -80 75
-14 15 -68 65 -120 110 -52 46 -96 86 -98 89 -1 3 42 51 97 105 l99 98 108
-103 c60 -57 150 -144 199 -194 50 -50 121 -117 158 -150 l69 -59 40 45 c22
24 70 75 106 112 36 38 61 71 56 76 -88 75 -308 278 -405 373 l-127 124 32 36
c17 19 57 65 89 102 l59 66 42 -37 c23 -21 101 -91 173 -155z m13215 -825 c30
-43 76 -111 103 -152 l48 -73 -144 -142 c-79 -78 -228 -218 -331 -311 -104
-94 -188 -173 -188 -176 0 -3 -49 -50 -110 -104 -60 -54 -108 -100 -106 -102
2 -2 75 30 162 72 138 67 311 148 464 218 116 52 157 74 183 95 16 12 33 22
39 22 6 0 61 25 123 55 61 30 116 55 121 55 5 0 14 -8 19 -19 10 -19 77 -117
157 -231 l45 -65 -76 -51 c-170 -114 -402 -265 -416 -270 -8 -4 -15 -11 -15
-18 -1 -10 -109 -85 -275 -191 -97 -62 -354 -236 -368 -249 -10 -10 -53 -38
-109 -71 -9 -5 -53 -36 -98 -68 -45 -32 -83 -57 -85 -55 -1 2 -20 30 -40 63
-21 33 -53 78 -72 101 -18 23 -33 44 -33 47 0 4 14 14 32 23 17 9 72 46 123
83 50 36 100 72 111 79 10 6 45 29 78 50 32 20 74 50 95 66 20 15 115 80 211
143 278 183 311 205 307 209 -7 7 -224 -95 -812 -381 -155 -75 -241 -115 -251
-115 -2 0 -4 6 -4 13 0 6 -30 55 -66 106 l-66 95 178 173 c99 96 241 233 317
306 317 302 356 342 300 306 -83 -54 -332 -226 -398 -274 -33 -25 -76 -53 -95
-64 -30 -17 -84 -54 -265 -181 -16 -11 -58 -38 -93 -60 l-63 -40 -37 58 c-20
31 -50 74 -67 96 -28 37 -29 39 -10 52 11 8 38 28 60 45 22 17 103 73 180 124
77 52 165 111 195 131 30 21 93 63 140 93 47 31 90 61 95 68 6 6 69 50 140 97
72 47 137 91 145 98 8 7 50 36 95 65 44 28 94 61 110 73 68 49 241 159 251
159 6 1 36 -34 66 -76z m-14392 -476 c14 -7 48 -21 75 -31 28 -11 79 -36 114
-58 34 -21 65 -38 68 -38 3 0 18 -9 33 -20 24 -17 27 -24 21 -48 -11 -35 -111
-192 -124 -192 -5 0 -32 14 -59 30 -26 17 -51 30 -54 30 -3 0 -22 14 -43 30
-21 17 -54 35 -75 41 -80 22 -165 -55 -166 -149 0 -27 9 -42 49 -80 26 -26 70
-58 97 -71 27 -14 63 -37 79 -51 17 -15 84 -60 150 -100 66 -40 129 -79 140
-87 24 -16 259 -158 365 -220 92 -53 142 -58 187 -15 38 35 57 93 47 140 -4
21 -8 41 -8 47 -1 9 -111 84 -206 140 -90 53 -87 48 -58 86 13 19 44 67 69
107 24 39 48 72 53 72 9 0 137 -78 146 -89 3 -3 30 -23 61 -44 75 -50 165
-146 189 -200 45 -101 33 -210 -37 -342 -39 -75 -136 -168 -202 -197 -38 -16
-64 -19 -146 -16 -92 3 -105 6 -170 40 -110 57 -118 62 -152 86 -17 12 -35 22
-39 22 -4 0 -42 22 -83 49 -42 26 -98 61 -124 77 -90 54 -181 114 -186 122 -7
9 -160 102 -169 102 -15 0 -180 119 -214 154 -22 23 -53 70 -71 106 -74 149
-22 322 147 496 65 67 229 106 296 71z m14610 -1520 l73 -113 36 7 c20 4 76
17 125 29 48 12 91 19 93 16 3 -3 -21 -34 -54 -70 -33 -35 -72 -80 -87 -99
l-27 -35 53 -79 c29 -44 62 -94 72 -113 19 -33 19 -33 0 -25 -10 4 -41 16 -67
26 -27 10 -54 23 -61 28 -7 6 -33 18 -57 26 l-44 16 -36 -38 c-20 -21 -59 -66
-88 -101 -29 -35 -54 -62 -56 -60 -1 2 3 62 9 135 l12 131 -41 12 c-22 7 -58
20 -80 30 -22 10 -57 23 -77 30 -21 6 -38 15 -38 20 0 4 24 13 53 20 28 6 73
16 100 22 26 5 50 14 53 19 3 5 14 9 25 9 17 0 19 7 19 58 0 57 11 212 15 212
1 0 35 -51 75 -113z m-14800 -10 c0 -143 -1 -141 78 -162 186 -48 184 -47 169
-62 -8 -8 -29 -18 -48 -23 -19 -5 -67 -21 -107 -36 l-74 -27 6 -41 c3 -23 8
-84 12 -136 l7 -95 -43 50 c-24 28 -55 62 -69 76 -14 14 -31 35 -37 45 -19 31
-66 19 -263 -63 -17 -8 -6 14 66 124 29 46 56 88 58 95 3 7 -29 49 -70 93 -69
74 -97 125 -61 112 24 -9 97 -29 161 -43 59 -12 60 -12 82 12 13 14 26 37 29
51 10 37 83 145 95 138 5 -4 9 -52 9 -108z"/>
<path d="M14033 14902 c-84 -97 -161 -189 -170 -202 -15 -22 -58 -73 -172
-205 -57 -66 -57 -61 -4 -91 26 -15 75 -44 108 -65 60 -39 74 -38 75 3 0 9 56
141 125 295 158 350 153 339 182 396 13 26 21 47 16 47 -4 0 -77 -80 -160
-178z"/>
<path d="M15424 14123 c-38 -43 -118 -131 -177 -195 l-108 -118 53 -50 c100
-93 151 -92 259 8 40 37 99 97 131 135 52 61 58 72 58 113 0 43 -4 49 -70 115
-38 38 -72 69 -74 69 -2 0 -34 -35 -72 -77z"/>
<path d="M9170 13519 c-47 -5 -119 -13 -160 -19 -41 -5 -109 -13 -150 -16 -41
-3 -132 -17 -203 -30 -70 -13 -137 -24 -148 -24 -34 0 -319 -68 -504 -120
-187 -53 -517 -171 -620 -223 -39 -19 -122 -58 -185 -87 -134 -60 -362 -178
-438 -226 -29 -19 -55 -34 -58 -34 -6 0 -131 -77 -254 -157 -110 -72 -214
-146 -245 -175 -16 -16 -86 -72 -155 -125 -69 -53 -132 -103 -141 -112 -9 -9
-58 -54 -110 -101 -131 -118 -450 -444 -519 -531 -19 -24 -81 -100 -138 -169
-57 -69 -109 -138 -117 -155 -7 -16 -21 -39 -32 -50 -10 -11 -57 -76 -103
-145 -113 -166 -110 -162 -188 -295 l-43 -73 36 -69 c20 -37 40 -72 44 -76 5
-5 30 29 56 75 62 109 147 245 205 326 16 23 30 46 30 50 0 15 293 403 343
454 12 13 84 93 159 178 162 184 417 422 605 565 39 30 73 58 75 63 9 26 346
258 563 387 129 78 376 205 576 298 57 27 113 54 123 59 11 6 42 18 70 29 28
10 94 34 146 54 135 50 463 155 488 155 6 0 54 11 105 24 129 34 272 65 337
72 30 3 107 14 170 25 63 10 144 21 180 24 36 2 115 10 175 17 150 16 702 16
900 0 142 -12 409 -46 565 -72 219 -37 545 -121 648 -166 29 -13 60 -24 68
-24 9 0 43 -11 77 -24 34 -13 82 -31 107 -39 99 -34 137 -49 177 -67 24 -11
45 -20 48 -20 21 0 526 -250 624 -309 46 -28 86 -51 88 -51 2 0 9 -5 16 -10 7
-6 55 -37 107 -70 182 -114 349 -232 409 -290 14 -13 69 -58 121 -99 52 -41
100 -80 105 -87 6 -6 73 -70 151 -141 77 -70 160 -150 185 -177 24 -27 82 -90
129 -140 47 -50 110 -119 141 -153 l57 -62 29 37 c54 67 56 75 23 113 -16 19
-29 41 -30 50 0 15 -387 413 -495 509 -101 90 -171 149 -220 186 -27 21 -54
43 -60 49 -5 7 -35 29 -65 50 -30 22 -59 45 -63 52 -8 13 -81 67 -181 133 -29
19 -70 47 -92 61 -228 153 -526 314 -799 433 -71 31 -139 61 -149 67 -21 12
-111 47 -221 85 -38 14 -79 29 -90 34 -85 36 -418 133 -610 178 -175 40 -466
83 -805 118 -150 15 -725 17 -870 3z"/>
<path d="M9329 13291 c-47 -15 -238 -113 -255 -132 -9 -10 -21 -19 -26 -19
-10 0 -68 -44 -147 -112 -34 -30 -52 -38 -82 -38 -20 0 -82 -9 -136 -19 -54
-11 -120 -23 -148 -26 -50 -7 -290 -67 -415 -104 -36 -11 -99 -29 -140 -41
-41 -12 -79 -26 -85 -30 -5 -4 -33 -15 -62 -23 -29 -9 -67 -22 -85 -31 -18 -8
-73 -31 -123 -50 -104 -40 -222 -93 -239 -107 -6 -5 -71 -39 -145 -75 -148
-73 -352 -188 -452 -255 -36 -24 -72 -48 -81 -54 -8 -5 -48 -32 -89 -59 -41
-27 -76 -52 -79 -56 -3 -4 -57 -45 -120 -91 -63 -47 -143 -112 -177 -145 -34
-32 -114 -106 -178 -164 -106 -94 -310 -303 -396 -405 -19 -22 -38 -45 -44
-52 -10 -11 -28 -34 -166 -208 -119 -151 -429 -631 -429 -665 0 -7 -16 -41
-35 -75 l-34 -62 34 -33 c19 -19 36 -32 38 -29 2 2 23 40 47 84 39 73 174 301
227 385 58 92 155 231 223 319 41 53 86 112 100 131 54 77 365 411 469 505 61
54 111 102 111 106 0 17 308 261 444 352 39 26 78 53 86 60 28 23 185 124 260
168 381 222 832 417 1180 511 231 62 369 94 383 89 13 -5 0 -25 -64 -96 -140
-155 -272 -367 -347 -560 -25 -65 -61 -236 -71 -339 -5 -45 -9 -72 -10 -62 -2
38 -55 106 -99 127 -49 24 -87 22 -176 -11 -55 -21 -140 -96 -152 -134 -4 -11
-28 -52 -55 -91 -26 -38 -57 -95 -68 -125 -21 -58 -51 -214 -51 -266 0 -29 -4
-33 -43 -42 -44 -11 -157 -85 -157 -103 0 -6 27 -7 68 -4 66 6 67 6 42 -12
-89 -65 -100 -92 -50 -118 16 -8 35 -15 43 -15 8 0 21 -9 28 -21 l14 -21 20
23 c12 14 14 19 5 14 -8 -4 -1 6 15 23 17 17 37 39 46 49 9 10 44 43 77 73
l61 56 -14 48 c-52 172 50 444 190 507 40 18 109 25 140 13 28 -11 47 -65 52
-148 l6 -81 -30 28 c-30 28 -50 36 -115 44 -82 11 -167 -48 -189 -131 -15 -52
2 -120 38 -158 15 -15 23 -33 20 -42 -4 -10 -1 -13 9 -9 7 3 14 8 14 12 0 9
112 67 123 63 4 -1 7 3 7 10 0 6 3 8 7 5 3 -4 12 1 20 11 8 9 12 11 8 5 -3 -7
-1 -13 4 -13 6 0 11 4 11 8 0 8 14 12 53 13 9 0 17 5 17 11 0 5 7 8 15 4 8 -3
15 0 15 6 0 7 5 6 15 -2 10 -9 15 -9 15 -1 0 6 11 11 25 11 14 0 25 -5 25 -11
0 -8 5 -8 15 1 12 10 15 10 15 0 0 -7 7 -10 16 -6 8 3 12 2 9 -4 -3 -6 1 -10
10 -10 34 0 150 -76 213 -139 68 -69 142 -199 142 -250 0 -15 5 -33 10 -41 8
-13 10 -13 10 2 0 32 20 29 103 -13 135 -68 207 -126 207 -165 0 -78 -53 -101
-200 -88 -280 23 -554 -10 -800 -97 -30 -11 -62 -22 -70 -24 -8 -2 -33 -12
-55 -23 -22 -11 -85 -39 -140 -62 -123 -50 -169 -77 -221 -127 -22 -21 -89
-76 -149 -123 -105 -83 -211 -187 -201 -198 3 -2 40 31 83 74 42 43 115 107
162 142 47 34 91 71 98 81 19 28 127 93 223 133 47 20 109 48 139 61 43 21 58
23 77 15 30 -14 30 -18 -3 -48 -26 -24 -83 -103 -83 -116 0 -3 17 16 37 43 20
26 42 53 48 58 10 8 86 103 91 113 1 2 190 44 269 59 l30 6 -31 -34 c-82 -92
-165 -227 -207 -340 -30 -80 -67 -212 -67 -239 0 -11 -4 -20 -8 -20 -8 0 -85
-55 -145 -103 -28 -23 -142 -137 -196 -197 -38 -42 -120 -203 -127 -250 -4
-21 -1 -36 8 -41 11 -7 11 -9 0 -9 -8 0 -16 9 -19 20 -3 11 -9 17 -14 14 -11
-7 -11 -1 1 30 6 18 6 26 -1 26 -6 0 -7 5 -4 10 4 6 9 23 11 38 4 19 2 24 -6
16 -17 -17 -25 -139 -10 -173 l12 -31 29 36 c33 42 35 45 14 38 -20 -8 -20 -7
19 85 59 139 157 259 316 386 76 60 287 204 410 279 25 15 84 53 131 84 47 31
119 79 160 106 82 54 202 166 255 238 28 37 43 49 72 53 20 3 45 10 54 16 25
13 26 13 37 -28 37 -131 -32 -377 -146 -527 -70 -91 -256 -194 -413 -227 -59
-13 -114 -36 -99 -42 10 -4 9 -6 -3 -6 -10 -1 -18 4 -18 11 0 9 -3 9 -11 1 -6
-6 -18 -9 -27 -6 -9 4 -13 2 -9 -4 5 -7 -1 -9 -15 -5 -16 4 -19 2 -13 -8 6
-10 2 -11 -19 -6 -17 4 -25 3 -22 -3 3 -5 -1 -11 -9 -15 -8 -3 -15 0 -15 7 0
7 -9 -6 -19 -29 -10 -22 -31 -60 -46 -84 -59 -94 -139 -250 -175 -341 -48
-120 -68 -305 -47 -422 16 -93 5 -97 -37 -11 -23 47 -30 76 -34 145 -4 76 0
100 28 195 34 117 105 265 195 407 30 49 55 92 55 98 0 5 -8 9 -18 9 -10 0
-19 -6 -19 -12 0 -7 -26 -55 -57 -106 -71 -117 -110 -195 -172 -342 l-49 -115
0 -125 c1 -108 4 -131 22 -166 32 -61 69 -101 122 -132 38 -23 57 -27 117 -27
69 0 72 0 84 -29 22 -50 81 -106 144 -139 57 -28 69 -31 166 -31 87 0 113 3
153 22 218 99 423 431 503 813 28 139 32 304 10 457 -14 94 -18 129 -32 277
-4 38 -12 85 -19 105 -6 19 -10 51 -8 71 3 23 -2 54 -14 80 -21 51 -19 89 5
89 26 -1 93 -34 136 -69 77 -61 76 24 0 103 -26 26 -44 50 -40 53 12 12 99 5
151 -13 30 -10 58 -14 62 -10 14 14 -61 67 -120 83 -31 9 -56 17 -55 19 2 1
38 10 82 18 123 26 200 67 279 147 37 39 67 74 67 80 0 5 9 28 19 52 41 91 45
118 45 297 -1 168 -2 179 -32 270 -17 52 -44 116 -60 141 -59 92 -177 159
-281 159 -97 -1 -271 -62 -404 -142 -106 -64 -173 -120 -270 -224 -43 -46 -83
-84 -88 -84 -5 0 -12 18 -15 40 -4 22 -10 43 -15 45 -16 10 -19 -15 -7 -64 10
-45 9 -54 -5 -68 -15 -15 -18 -13 -36 28 -12 24 -21 63 -21 87 0 23 -3 42 -6
42 -16 0 -74 -43 -89 -66 -12 -19 -20 -23 -28 -15 -7 7 -7 14 0 23 14 17 23
58 13 58 -4 0 -24 -13 -45 -30 -20 -16 -41 -27 -46 -24 -5 3 -9 32 -9 66 l0
60 30 -31 c26 -29 33 -31 67 -25 21 4 49 14 63 23 36 22 144 102 150 110 3 3
32 24 65 46 33 22 62 43 63 48 5 11 99 70 157 99 163 82 301 109 577 115 280
7 375 -11 755 -140 61 -20 62 -20 103 -2 46 21 61 46 52 91 -5 27 -4 28 14 14
54 -42 120 -96 125 -103 3 -5 19 -7 35 -5 24 2 34 13 59 63 27 54 30 71 34
176 3 108 1 121 -28 205 -36 104 -82 175 -159 245 -66 60 -90 73 -164 89 -54
11 -88 30 -53 30 8 0 33 11 55 25 22 14 42 25 45 25 3 0 29 17 58 39 90 66
144 140 131 176 -4 8 -7 15 -8 15 0 0 -19 7 -41 15 l-40 14 65 -5 c125 -10
459 -77 650 -131 127 -36 244 -75 274 -90 17 -9 56 -24 86 -34 192 -61 629
-262 790 -364 22 -14 41 -25 44 -25 6 0 134 -78 196 -120 30 -20 65 -43 76
-51 68 -45 173 -120 185 -131 8 -7 66 -52 129 -99 63 -47 149 -119 190 -160
42 -41 120 -114 174 -164 142 -130 437 -455 457 -504 9 -23 10 -23 44 20 l34
43 -25 31 c-13 16 -32 41 -41 55 -50 74 -352 386 -567 585 -117 109 -326 273
-488 383 -35 23 -92 62 -128 86 -156 106 -600 341 -765 406 -44 18 -84 35 -90
40 -5 4 -26 13 -45 19 -41 12 -159 55 -280 101 -47 18 -114 40 -150 50 -233
65 -342 93 -370 95 -14 2 -82 14 -150 28 -69 14 -156 28 -195 32 -38 3 -95 10
-125 15 -30 5 -87 12 -127 15 l-71 7 39 36 c33 29 39 41 37 66 -3 26 -9 33
-43 44 -61 21 -254 11 -325 -17 -30 -11 -62 -21 -71 -21 -8 0 -33 -8 -55 -19
-156 -75 -223 -96 -211 -70 63 146 73 202 39 232 -20 18 -77 21 -123 8z m-279
-302 c0 -53 -50 -119 -91 -119 -40 0 -15 88 37 129 38 30 54 27 54 -10z m1100
-74 l95 -13 -160 -1 c-101 -1 -180 -6 -215 -15 -36 -10 -48 -10 -36 -3 10 7
31 22 45 35 24 20 33 22 101 16 41 -3 118 -12 170 -19z m-1420 -74 c-12 -17
-23 -31 -24 -31 -1 0 -1 13 2 29 2 17 11 32 21 34 25 5 25 1 1 -32z m-219
-323 c18 -33 3 -145 -30 -235 -55 -149 -137 -271 -164 -244 -5 5 -9 50 -9 100
2 135 58 287 140 374 31 33 47 34 63 5z m-209 -661 c0 -19 -5 -45 -12 -57 -17
-32 -34 -10 -31 42 4 75 43 89 43 15z m780 -199 c54 -16 112 -82 131 -149 9
-30 19 -106 22 -169 l7 -115 -25 36 c-30 43 -107 79 -167 79 -90 0 -171 -61
-196 -146 -17 -60 -12 -101 19 -164 19 -38 33 -50 90 -79 64 -32 72 -34 115
-24 26 5 55 14 66 18 32 14 13 -18 -24 -40 -18 -11 -63 -48 -100 -82 -72 -68
-100 -77 -118 -39 -14 30 -112 106 -179 137 -29 13 -55 31 -59 39 -4 8 -9 68
-12 132 -5 142 11 224 72 347 48 98 140 201 196 218 48 15 115 15 162 1z
m-1214 -110 c28 -28 7 -78 -32 -78 -21 0 -56 27 -56 43 0 36 63 60 88 35z
m1193 -268 c22 -12 26 -59 7 -78 -17 -17 -58 -15 -80 5 -22 20 -23 32 -2 61
16 24 44 28 75 12z m-667 -1452 c-8 -35 -19 -76 -25 -93 -6 -16 -13 -41 -15
-55 -3 -13 -9 -29 -13 -35 -5 -5 -12 -21 -16 -35 -8 -27 -67 -176 -90 -225
-117 -251 -159 -459 -131 -640 l6 -40 -20 25 c-11 14 -30 56 -41 93 -20 63
-20 76 -10 155 15 117 68 307 102 366 6 11 15 31 19 45 5 14 25 64 45 111 38
92 101 248 116 293 24 70 32 86 47 90 40 11 41 9 26 -55z"/>
<path d="M8313 11046 c-54 -49 -113 -132 -113 -159 0 -22 4 -21 52 5 39 22
128 120 128 142 0 6 5 4 10 -4 13 -21 33 1 28 31 -6 43 -48 36 -105 -15z"/>
<path d="M7372 10890 c-7 -11 -8 -20 -3 -20 9 0 24 30 18 36 -1 2 -8 -6 -15
-16z"/>
<path d="M7290 10760 c-12 -16 -18 -30 -13 -30 5 0 17 14 26 30 10 17 16 30
13 30 -2 0 -14 -13 -26 -30z"/>
<path d="M7240 10670 c-6 -11 -7 -20 -2 -20 6 0 12 9 15 20 3 11 3 20 1 20 -2
0 -8 -9 -14 -20z"/>
<path d="M7215 10630 c-3 -5 -1 -10 4 -10 6 0 11 5 11 10 0 6 -2 10 -4 10 -3
0 -8 -4 -11 -10z"/>
<path d="M7190 10574 c-12 -19 -21 -37 -18 -39 2 -2 14 14 26 36 28 49 22 52
-8 3z"/>
<path d="M7152 10495 c-6 -14 -7 -25 -2 -25 9 0 25 39 18 46 -3 2 -10 -7 -16
-21z"/>
<path d="M7107 10379 c-29 -66 -32 -79 -17 -79 8 0 13 11 9 23 0 1 9 26 21 56
29 74 20 74 -13 0z"/>
<path d="M7693 10314 c-12 -24 -19 -44 -15 -44 8 0 45 80 40 86 -2 1 -13 -17
-25 -42z"/>
<path d="M7065 10250 c-3 -5 -1 -10 4 -10 6 0 11 5 11 10 0 6 -2 10 -4 10 -3
0 -8 -4 -11 -10z"/>
<path d="M7651 10238 c-14 -23 -14 -23 8 -4 22 20 25 26 13 26 -4 0 -13 -10
-21 -22z"/>
<path d="M7055 10220 c-3 -5 -1 -10 4 -10 6 0 11 5 11 10 0 6 -2 10 -4 10 -3
0 -8 -4 -11 -10z"/>
<path d="M7629 10193 c-13 -16 -12 -17 4 -4 9 7 17 15 17 17 0 8 -8 3 -21 -13z"/>
<path d="M7045 10189 c-3 -8 -7 -27 -9 -44 -2 -16 -7 -39 -11 -50 -6 -15 -5
-17 3 -10 7 6 16 33 21 60 9 48 7 72 -4 44z"/>
<path d="M7606 10155 c-3 -8 -1 -15 4 -15 6 0 10 7 10 15 0 8 -2 15 -4 15 -2
0 -6 -7 -10 -15z"/>
<path d="M7580 10102 c-21 -42 -21 -42 -16 -42 6 0 37 62 33 67 -2 1 -10 -9
-17 -25z"/>
<path d="M7011 10039 c-6 -18 -9 -34 -7 -36 2 -2 9 10 15 28 6 18 9 34 7 36
-2 2 -9 -10 -15 -28z"/>
<path d="M7547 10028 c-4 -13 -6 -24 -6 -26 0 -2 -7 -14 -15 -28 -9 -13 -12
-24 -7 -24 8 0 18 19 26 50 1 3 5 13 10 23 4 10 5 20 3 23 -3 3 -8 -6 -11 -18z"/>
<path d="M7493 9903 c-3 -10 -8 -21 -10 -25 -2 -5 0 -8 5 -8 5 0 12 11 14 25
6 29 0 33 -9 8z"/>
<path d="M7476 9845 c-9 -26 -7 -32 5 -12 6 10 9 21 6 23 -2 3 -7 -2 -11 -11z"/>
<path d="M8033 9813 c-13 -2 -23 -9 -23 -14 0 -13 13 -11 36 6 10 8 17 14 14
13 -3 0 -15 -3 -27 -5z"/>
<path d="M7457 9795 c-4 -11 -11 -30 -16 -42 -8 -18 -7 -21 4 -16 8 3 12 9 9
14 -3 6 0 16 6 24 7 8 10 20 8 27 -3 8 -7 5 -11 -7z"/>
<path d="M7870 9754 l-25 -15 25 7 c28 7 35 12 29 18 -2 2 -15 -2 -29 -10z"/>
<path d="M7778 9714 c-38 -20 -36 -28 2 -9 17 9 30 18 30 20 0 7 -1 6 -32 -11z"/>
<path d="M7426 9688 c-11 -37 -14 -60 -6 -52 11 12 24 64 16 64 -4 0 -8 -6
-10 -12z"/>
<path d="M7664 9649 c-19 -22 -19 -22 4 -8 12 8 22 17 22 21 0 12 -6 9 -26
-13z"/>
<path d="M7620 9620 c-8 -5 -12 -12 -9 -15 4 -3 12 1 19 10 14 17 11 19 -10 5z"/>
<path d="M7406 9605 c-9 -26 -7 -32 5 -12 6 10 9 21 6 23 -2 3 -7 -2 -11 -11z"/>
<path d="M7576 9585 c-11 -8 -15 -15 -9 -15 6 0 16 7 23 15 16 19 11 19 -14 0z"/>
<path d="M7518 9530 c-14 -16 -22 -30 -18 -30 5 0 18 14 30 30 12 17 20 30 18
30 -2 0 -15 -13 -30 -30z"/>
<path d="M7475 9480 c-3 -5 -1 -10 4 -10 6 0 11 5 11 10 0 6 -2 10 -4 10 -3 0
-8 -4 -11 -10z"/>
<path d="M15081 9139 c-28 -38 -22 -47 13 -17 17 15 23 28 18 36 -6 9 -15 3
-31 -19z"/>
<path d="M15153 8451 l-61 -89 9 -223 c31 -743 -67 -1428 -293 -2064 -22 -60
-44 -130 -48 -155 -10 -53 -166 -399 -233 -517 -26 -45 -47 -89 -47 -97 0 -16
-54 -121 -75 -146 -7 -8 -40 -61 -74 -118 -181 -304 -471 -695 -685 -923 -39
-42 -89 -96 -112 -120 -72 -79 -209 -204 -361 -329 -81 -68 -155 -131 -163
-141 -8 -10 -32 -30 -53 -44 l-39 -25 -76 15 c-42 9 -95 18 -117 21 -22 2 -84
14 -138 25 -54 12 -104 18 -112 15 -30 -11 -13 5 43 41 31 21 84 58 117 83 33
25 71 53 85 63 72 48 234 179 280 226 19 20 86 81 149 136 131 115 378 376
426 450 18 28 43 59 55 70 13 11 62 71 109 134 126 167 131 174 131 188 0 12
122 204 148 233 15 17 33 47 130 220 124 222 267 531 310 670 11 36 45 142 75
235 139 430 220 828 229 1126 3 94 3 95 -14 68 -9 -15 -23 -31 -30 -36 -7 -4
-24 -20 -37 -35 -20 -23 -25 -43 -32 -122 -14 -162 -75 -478 -135 -693 -19
-67 -34 -133 -34 -147 0 -14 -6 -43 -14 -63 -8 -21 -28 -82 -45 -136 -56 -177
-166 -437 -280 -665 -63 -125 -215 -390 -250 -434 -12 -14 -21 -34 -21 -43 0
-9 -25 -50 -55 -90 -30 -41 -55 -77 -55 -81 0 -3 -29 -42 -63 -87 -35 -45 -89
-116 -121 -157 -81 -108 -249 -299 -263 -299 -6 -1 -14 -9 -17 -19 -9 -28
-316 -318 -472 -445 -87 -72 -340 -257 -350 -257 -3 0 -36 -24 -74 -52 -38
-29 -85 -63 -105 -76 l-37 -22 -42 30 c-45 33 -114 54 -206 64 -30 4 -91 12
-135 18 -57 7 -95 7 -130 0 -42 -9 -54 -8 -87 9 -40 21 -296 59 -396 59 -54 0
-118 -27 -168 -72 -18 -16 -23 -17 -33 -4 -19 23 -89 61 -177 97 -78 32 -81
32 -244 32 -155 1 -170 -1 -245 -28 -135 -47 -252 -140 -323 -257 -42 -70 -93
-217 -95 -274 -1 -24 -4 -40 -8 -36 -4 4 -9 84 -11 177 -3 148 -6 176 -25 218
-29 62 -125 162 -188 196 l-50 26 -230 -3 c-245 -2 -306 -12 -359 -53 -29 -23
-26 -24 -101 19 -27 15 -59 17 -285 14 -219 -3 -259 -6 -289 -21 -31 -16 -38
-17 -83 -3 -45 13 -68 12 -229 -7 -108 -12 -192 -27 -211 -37 -27 -14 -37 -14
-71 -3 -64 21 -421 -16 -452 -47 -9 -10 -27 -12 -60 -7 -64 8 -338 -25 -399
-48 l-49 -19 -36 25 c-20 14 -56 40 -81 57 -162 113 -254 179 -315 229 -38 30
-104 82 -145 115 -155 122 -633 616 -678 701 -7 12 -20 29 -29 39 -46 45 -224
300 -336 481 -27 43 -63 101 -80 129 -50 81 -227 440 -227 461 0 3 -11 29 -24
57 -13 28 -36 79 -51 112 -20 47 -38 70 -73 95 -26 19 -60 47 -76 64 -21 22
-27 25 -21 10 4 -11 13 -38 21 -60 23 -71 83 -222 119 -300 37 -81 134 -279
145 -295 5 -8 24 -46 43 -85 18 -38 46 -92 62 -120 53 -92 220 -351 255 -397
12 -16 45 -61 74 -101 29 -40 85 -111 124 -156 40 -46 72 -90 72 -97 0 -16
437 -457 565 -571 125 -111 264 -218 438 -339 37 -25 67 -50 67 -55 0 -5 -15
-9 -33 -9 -18 0 -67 -9 -109 -20 -42 -11 -108 -24 -148 -30 -39 -6 -85 -17
-101 -26 -30 -15 -31 -15 -72 20 -23 20 -107 89 -187 155 -222 182 -595 559
-713 721 -22 30 -48 64 -58 75 -31 33 -73 87 -114 145 -22 30 -42 57 -46 60
-15 12 -79 114 -79 125 0 7 -4 15 -9 17 -10 4 -198 294 -232 359 -210 401
-349 698 -349 748 0 10 -8 40 -19 67 -35 91 -118 333 -126 369 -2 11 -9 36
-14 55 -59 215 -123 507 -136 620 -10 83 -24 153 -33 159 -16 11 -130 188
-146 226 -9 21 -19 36 -22 33 -14 -15 49 -491 92 -688 39 -177 83 -358 105
-430 58 -188 73 -238 85 -265 6 -16 19 -55 29 -85 10 -30 21 -59 24 -65 4 -5
20 -44 35 -85 16 -41 33 -79 37 -85 5 -5 9 -15 9 -22 0 -7 18 -51 40 -98 22
-47 40 -92 40 -100 0 -21 129 -276 200 -395 32 -52 72 -122 90 -155 96 -174
395 -595 515 -725 28 -30 64 -73 80 -94 16 -22 86 -99 157 -171 70 -73 137
-144 149 -159 19 -25 322 -289 419 -366 l25 -19 -37 -1 c-39 0 -74 -6 -254
-46 -61 -13 -130 -24 -154 -24 -30 0 -53 -8 -83 -29 -36 -26 -50 -30 -102 -28
-38 1 -84 -7 -125 -20 -36 -12 -108 -34 -160 -48 -52 -15 -122 -36 -155 -46
-33 -10 -91 -28 -130 -38 -183 -51 -220 -63 -265 -86 -53 -27 -88 -67 -116
-132 -16 -37 -20 -40 -42 -32 -13 5 -76 9 -141 9 -111 0 -125 -2 -232 -39
-135 -46 -170 -58 -226 -83 -24 -10 -46 -18 -51 -18 -4 0 -46 -15 -92 -34
-108 -44 -181 -107 -201 -174 l-15 -47 -129 -6 c-107 -6 -142 -11 -200 -33
-99 -38 -458 -219 -499 -252 -54 -43 -91 -126 -89 -199 1 -77 1 -145 -1 -220
-1 -59 2 -65 253 -565 139 -278 293 -583 342 -678 49 -96 89 -180 89 -187 0
-8 23 -58 50 -112 109 -213 270 -297 445 -232 30 11 61 26 68 33 6 6 55 33
107 59 114 56 154 92 189 166 27 60 34 150 14 186 -7 13 -8 28 -1 48 l11 29
56 -55 c106 -105 186 -128 299 -86 31 12 75 25 97 29 22 4 67 20 100 34 33 14
65 26 71 26 7 0 34 20 62 45 48 43 53 45 111 45 43 0 74 6 103 21 22 11 48 22
57 24 23 5 184 67 196 75 6 4 30 11 55 15 45 7 154 37 285 80 39 12 113 35
165 50 52 15 136 41 185 57 89 30 155 46 290 72 39 7 87 21 109 30 23 9 67 16
110 16 75 1 320 50 339 69 6 6 29 11 52 11 42 0 227 32 298 51 22 6 85 13 139
15 203 8 362 45 418 99 l25 24 75 -26 c112 -38 274 -43 395 -13 80 20 165 55
223 91 16 10 28 8 68 -12 56 -28 57 -28 479 -15 149 4 385 8 525 10 254 2 255
2 305 28 102 53 144 118 154 237 l6 75 27 -50 c55 -100 258 -270 353 -295 17
-4 55 -15 85 -24 30 -8 96 -18 145 -22 70 -5 98 -11 127 -30 21 -12 44 -23 51
-23 7 0 17 -4 22 -9 24 -22 128 -41 224 -41 88 0 108 3 149 24 26 13 53 34 60
45 10 17 16 19 32 11 11 -6 64 -22 117 -35 117 -30 263 -34 360 -9 62 15 63
15 110 -10 61 -32 277 -76 373 -76 55 0 84 5 117 22 l43 22 43 -42 c23 -22 58
-48 78 -56 49 -21 167 -43 259 -50 41 -3 99 -14 128 -25 29 -12 63 -21 75 -21
13 0 27 -4 32 -9 6 -4 42 -16 80 -25 95 -24 230 -59 345 -89 52 -14 112 -29
133 -33 20 -3 37 -10 37 -14 0 -14 321 -114 365 -115 22 0 54 3 72 7 28 6 36
2 72 -32 49 -48 71 -59 219 -116 65 -24 128 -50 141 -56 32 -17 138 -12 186 7
22 10 55 28 72 41 l32 25 7 -28 c16 -73 29 -94 107 -171 75 -73 98 -88 236
-156 148 -73 156 -76 225 -76 60 0 79 5 122 30 28 16 64 44 79 62 15 18 80
139 143 268 l116 235 120 135 c67 74 148 162 182 195 33 33 101 105 151 160
50 55 145 161 213 235 67 75 131 155 142 180 23 50 29 152 11 184 -7 13 -6 31
4 65 28 90 -4 175 -103 277 -61 63 -84 78 -204 136 -164 80 -197 91 -259 86
-48 -3 -48 -3 -109 63 -54 58 -78 73 -204 136 -163 80 -193 93 -215 93 -9 0
-24 6 -32 13 -17 14 -92 45 -221 91 -41 15 -91 34 -110 41 -19 8 -78 30 -130
50 -52 20 -122 47 -155 61 -33 13 -64 24 -68 24 -5 0 -32 11 -61 24 -29 13
-79 27 -112 31 -32 4 -75 16 -94 25 -118 60 -309 120 -381 120 -92 -1 -176
-52 -227 -139 l-27 -46 -7 64 c-5 44 -15 75 -34 102 -37 54 -126 136 -166 153
-55 23 -107 38 -116 32 -5 -3 -31 2 -58 10 -165 50 -259 50 -336 -1 l-38 -26
-40 32 c-21 17 -41 37 -44 44 -2 7 23 31 57 56 57 39 299 245 388 329 78 74
359 373 359 383 0 5 26 39 58 74 99 111 259 321 386 507 59 87 166 261 166
271 0 4 22 44 50 90 56 93 131 232 189 350 35 71 53 113 121 285 10 25 33 81
50 125 57 142 125 345 158 470 74 279 113 453 133 590 6 39 20 126 31 195 45
282 59 794 33 1195 -8 121 -15 226 -15 233 0 27 -19 8 -77 -77z m-5525 -5104
c1 -83 11 -449 22 -812 11 -363 20 -663 20 -667 0 -4 -56 -8 -125 -10 l-125
-3 0 40 c0 22 -7 243 -15 490 -8 248 -15 490 -15 539 0 49 -2 87 -4 85 -3 -2
-7 -38 -11 -79 -3 -41 -12 -115 -19 -165 -8 -49 -19 -137 -26 -195 -6 -58 -20
-163 -30 -235 -11 -71 -22 -157 -25 -190 -3 -33 -13 -113 -22 -177 l-16 -117
-121 -3 c-67 -2 -122 -2 -124 -2 -1 1 -7 30 -13 65 -5 35 -18 105 -28 154 -11
50 -31 155 -46 235 -72 392 -118 620 -123 615 -7 -6 -2 -433 9 -749 5 -175 9
-319 7 -321 -2 -1 -51 -5 -110 -9 l-108 -7 0 178 c0 98 -9 459 -20 803 -11
344 -20 636 -20 650 l0 26 179 3 178 3 17 -99 c9 -54 26 -141 36 -193 11 -52
22 -111 24 -131 3 -20 14 -76 25 -125 12 -49 23 -107 25 -129 5 -40 31 -179
69 -375 19 -94 22 -101 28 -70 4 19 10 69 13 110 3 41 15 136 26 210 11 74 20
152 20 173 0 21 11 107 24 190 13 84 24 170 25 192 1 22 8 84 16 137 8 54 15
102 15 108 0 6 67 10 183 10 l182 0 3 -153z m1160 121 c133 -50 211 -141 230
-268 12 -80 3 -324 -29 -778 -22 -317 -29 -363 -60 -416 -26 -45 -15 -63 42
-72 44 -7 44 -5 32 -151 l-6 -83 -31 0 c-81 0 -179 44 -204 92 -12 22 -16 23
-160 23 -140 1 -150 2 -209 29 -75 34 -134 94 -171 174 -25 53 -26 67 -27 202
0 80 6 253 13 385 31 582 36 620 99 726 53 92 135 141 262 158 84 12 146 6
219 -21z m-2504 -31 c10 -47 46 -415 46 -464 0 -28 9 -129 20 -225 10 -95 21
-207 24 -248 2 -41 10 -141 17 -221 14 -165 6 -248 -32 -326 -21 -44 -102
-133 -121 -133 -5 0 -30 -10 -56 -22 -38 -18 -70 -23 -165 -26 -112 -4 -122
-3 -180 23 -114 50 -184 146 -206 280 -15 94 -39 329 -46 440 -3 50 -10 128
-15 175 -19 161 -30 285 -35 370 -3 47 -12 141 -20 210 -8 68 -13 125 -12 126
1 1 48 4 105 8 57 4 116 9 132 12 l28 6 6 -78 c3 -44 17 -198 31 -344 13 -146
36 -393 50 -550 32 -343 38 -380 72 -414 22 -23 34 -26 89 -26 56 0 67 3 96
29 l33 30 -2 138 c-1 76 -6 183 -12 238 -30 289 -85 866 -94 975 -2 23 2 25
48 30 28 3 83 6 122 7 68 2 73 1 77 -20z m3141 -27 c44 -4 84 -8 90 -7 21 4 7
-147 -80 -828 -56 -441 -60 -490 -44 -531 29 -75 132 -107 200 -61 47 32 68
94 79 241 5 66 17 166 25 220 8 55 17 127 20 160 2 34 14 126 25 206 12 80 21
161 21 180 1 35 35 304 45 348 5 23 6 23 102 17 115 -7 145 -13 139 -29 -3 -7
-12 -70 -21 -142 -41 -333 -58 -476 -66 -564 -5 -52 -18 -156 -29 -230 -11
-74 -23 -171 -26 -215 -16 -217 -93 -367 -215 -423 -141 -64 -360 -26 -461 79
-96 100 -114 210 -81 476 12 93 31 245 43 338 11 94 25 233 30 310 6 77 16
187 24 245 8 58 17 133 21 168 l7 63 36 -6 c20 -3 72 -10 116 -15z m-4135 -81
c0 -17 9 -84 20 -148 10 -64 20 -134 21 -156 1 -22 10 -94 21 -160 12 -66 24
-172 28 -235 7 -113 27 -268 75 -585 13 -88 26 -196 27 -240 l3 -80 -75 -6
c-41 -3 -96 -9 -122 -14 l-48 -7 -1 48 c0 27 -4 72 -9 99 -5 28 -17 100 -26
160 -8 61 -26 180 -40 266 -13 86 -24 172 -24 191 0 18 -11 101 -24 183 -13
83 -27 175 -30 205 -3 30 -15 114 -25 185 -23 155 -40 289 -37 292 5 5 167 28
216 31 l50 3 0 -32z m-499 -199 c6 -47 19 -125 29 -175 10 -49 23 -117 30
-150 6 -33 18 -91 25 -130 19 -88 59 -289 86 -420 32 -161 69 -332 95 -448 14
-59 22 -112 19 -117 -3 -5 -22 -12 -43 -15 -20 -4 -67 -13 -104 -21 -37 -8
-73 -14 -80 -14 -14 0 -58 179 -58 235 0 28 -17 115 -75 390 -40 185 -57 268
-67 320 -25 138 -31 165 -34 162 -2 -2 1 -67 6 -144 5 -78 12 -231 15 -340 5
-195 20 -509 30 -610 l5 -51 -73 -16 c-39 -8 -95 -19 -124 -24 l-51 -9 -35 81
c-19 45 -47 115 -62 156 -15 41 -38 99 -51 128 -13 29 -24 58 -24 65 0 7 -10
32 -22 57 -11 25 -24 65 -28 90 -5 25 -29 95 -55 155 -25 61 -48 117 -50 125
-2 8 -12 35 -22 60 -11 25 -25 64 -33 88 -7 23 -15 40 -17 38 -5 -5 9 -85 42
-241 51 -243 65 -312 71 -350 3 -21 15 -73 25 -115 11 -41 22 -109 25 -150 3
-41 14 -105 25 -142 24 -82 24 -88 0 -88 -11 0 -22 -4 -25 -9 -5 -8 -24 -13
-106 -26 -19 -3 -43 -8 -52 -11 -12 -4 -19 2 -22 18 -2 13 -14 70 -26 128 -13
58 -28 134 -35 170 -34 182 -49 254 -71 353 -14 59 -27 123 -29 142 -3 19 -14
75 -25 125 -11 50 -23 108 -26 128 -3 20 -14 73 -25 117 -10 44 -21 98 -24
120 -4 22 -15 74 -25 115 -11 42 -22 100 -26 130 -3 30 -8 58 -10 62 -6 10 57
26 146 39 41 6 78 13 81 15 4 2 34 10 68 18 57 13 63 13 68 -2 14 -42 96 -253
119 -305 13 -32 24 -69 24 -82 0 -13 11 -50 24 -82 26 -62 87 -220 141 -368
18 -49 47 -124 64 -165 l31 -75 -6 200 c-3 110 -14 348 -25 528 -10 181 -19
353 -19 381 l0 53 98 18 c53 10 133 26 177 35 l80 17 13 -41 c7 -23 18 -79 23
-126z m5888 101 c57 -12 122 -23 144 -26 22 -3 42 -7 45 -9 2 -3 -1 -159 -6
-348 -6 -189 -11 -451 -12 -583 -2 -289 -16 -724 -24 -732 -3 -3 -27 0 -53 7
-26 7 -84 17 -127 24 l-80 11 3 130 c1 72 4 137 7 146 4 14 -8 19 -63 29 -37
6 -86 18 -108 25 -55 19 -134 25 -142 12 -4 -6 -26 -67 -49 -136 -23 -69 -47
-125 -53 -123 -6 1 -44 7 -84 12 -39 6 -89 15 -109 21 l-37 9 39 108 c21 59
59 160 83 224 25 64 53 136 61 160 8 24 29 81 47 128 17 47 49 137 70 200 21
63 43 124 49 135 20 41 120 330 120 348 0 10 14 52 30 94 17 41 30 79 30 84 0
5 7 26 15 45 14 34 16 35 57 31 24 -3 90 -15 147 -26z m734 -155 c29 -7 78
-19 110 -26 68 -16 67 -12 31 -147 -14 -54 -38 -147 -54 -208 -30 -118 -63
-240 -85 -320 -44 -158 -67 -243 -72 -270 -3 -16 -11 -48 -19 -71 -7 -22 -20
-69 -28 -105 -8 -35 -26 -109 -40 -164 -14 -54 -24 -100 -23 -100 10 -6 192
-56 267 -74 145 -34 132 -27 125 -74 -4 -23 -11 -49 -15 -57 -4 -8 -10 -28
-13 -45 -16 -95 -18 -96 -109 -65 -31 10 -72 21 -90 24 -18 3 -64 15 -103 26
-38 11 -85 23 -103 26 -18 3 -70 17 -115 31 -45 14 -99 30 -120 36 -21 6 -36
16 -34 22 5 10 17 53 61 211 14 50 26 106 26 124 0 18 13 81 29 139 16 58 39
144 51 191 12 47 30 114 40 150 9 36 32 121 50 190 18 69 40 154 50 190 11 36
21 76 24 90 7 35 62 252 71 279 4 14 12 20 21 17 8 -3 38 -12 67 -20z m-7973
-71 c0 -8 13 -55 28 -103 16 -48 27 -93 24 -100 -2 -6 -36 -21 -75 -32 -40
-11 -101 -29 -137 -40 -36 -11 -98 -30 -137 -41 -40 -12 -73 -26 -73 -32 0
-11 17 -73 56 -197 13 -41 33 -108 44 -147 12 -40 26 -75 31 -78 9 -6 57 7
194 50 39 12 88 25 110 29 l40 7 28 -99 c15 -55 27 -106 27 -113 0 -13 -77
-39 -302 -102 -21 -5 -35 -13 -33 -17 2 -4 15 -47 28 -96 13 -49 41 -144 61
-211 20 -67 36 -129 36 -138 0 -12 6 -15 21 -10 49 16 196 56 224 61 17 3 65
17 109 31 82 26 95 23 96 -18 0 -8 11 -49 25 -89 14 -40 25 -79 25 -85 0 -7
-44 -25 -97 -40 -54 -15 -114 -32 -133 -38 -19 -6 -36 -10 -37 -9 -2 0 -17 -4
-35 -9 -18 -6 -40 -12 -48 -14 -21 -5 -151 -43 -244 -72 -81 -24 -95 -22 -96
16 0 14 -16 70 -126 431 -12 41 -34 116 -48 165 -15 50 -37 126 -50 170 -13
44 -38 127 -55 185 -63 215 -123 417 -147 490 -35 110 -35 112 39 133 34 10
98 29 142 43 44 13 86 24 93 24 8 0 46 11 85 24 102 34 214 67 245 72 15 3 29
7 31 10 10 10 31 3 31 -11z m8863 -166 c49 -16 95 -29 103 -29 10 0 13 -6 10
-17 -29 -97 -81 -259 -95 -303 -11 -30 -43 -129 -72 -220 -28 -91 -76 -237
-104 -325 -29 -88 -74 -227 -100 -310 -26 -82 -62 -195 -80 -250 -18 -55 -36
-115 -40 -132 -6 -30 -9 -32 -33 -26 -75 18 -227 72 -226 79 1 8 52 167 119
374 13 41 56 176 95 300 39 124 81 257 94 295 13 39 35 111 51 160 15 50 40
128 55 175 15 47 40 126 56 177 33 106 17 101 167 52z m422 -146 c50 -19 117
-45 150 -59 33 -13 66 -24 73 -24 7 0 35 -11 62 -25 27 -14 55 -25 61 -25 6 0
37 -11 68 -24 31 -13 89 -36 129 -51 39 -15 72 -31 72 -37 0 -9 -37 -109 -67
-180 -15 -36 -17 -37 -42 -24 -14 7 -44 19 -66 26 -22 7 -53 18 -70 25 -16 7
-44 18 -61 23 l-31 10 -33 -86 c-18 -48 -38 -100 -46 -117 -21 -49 -74 -189
-74 -198 0 -4 -9 -27 -19 -50 -10 -23 -47 -114 -81 -202 -34 -88 -73 -185 -86
-216 -13 -31 -24 -61 -24 -67 0 -6 -11 -36 -25 -66 -14 -30 -25 -61 -25 -68 0
-8 -4 -18 -9 -23 -5 -6 -18 -37 -29 -70 -24 -71 -61 -155 -68 -155 -2 0 -12 4
-22 9 -17 9 -93 38 -164 62 -44 15 -45 19 -17 79 11 25 22 52 24 60 2 8 34 92
71 185 36 94 74 199 84 235 10 36 43 130 74 210 80 205 81 207 110 285 15 39
31 79 36 90 19 41 70 180 70 192 0 6 -21 19 -47 28 -27 10 -73 28 -104 41 -31
13 -63 24 -72 24 -8 0 -17 5 -19 12 -3 9 61 181 78 209 7 12 21 8 139 -38z
m-10327 -69 c78 -26 142 -89 191 -188 23 -47 58 -129 77 -183 32 -89 35 -106
32 -184 -3 -75 -7 -92 -34 -135 l-31 -50 50 -12 c121 -29 184 -117 296 -417
41 -110 70 -173 99 -218 14 -20 23 -39 21 -40 -5 -4 -102 -41 -182 -69 -44
-15 -61 -17 -71 -9 -18 15 -58 100 -106 225 -114 298 -135 330 -223 330 -36 1
-70 -7 -104 -22 l-50 -24 23 -61 c35 -98 52 -148 68 -202 8 -27 25 -75 36
-105 12 -30 33 -83 46 -118 13 -35 31 -77 40 -93 8 -17 13 -37 10 -44 -2 -7
-35 -23 -73 -35 -37 -12 -72 -25 -78 -29 -5 -5 -25 -13 -43 -19 -37 -13 -33
-19 -99 158 -20 52 -44 113 -53 135 -10 22 -41 99 -69 170 -28 72 -55 139 -60
150 -5 11 -26 63 -46 115 -36 91 -54 137 -108 280 -14 36 -44 110 -66 165 -23
54 -41 108 -41 120 0 11 -18 66 -41 122 -23 57 -39 109 -36 115 2 7 29 21 58
32 30 10 113 41 184 69 135 53 247 85 301 86 18 1 54 -6 82 -15z m11319 -338
c1 0 -5 -30 -13 -66 -7 -36 -25 -121 -39 -190 -13 -69 -34 -170 -45 -225 -12
-55 -25 -125 -30 -155 -6 -30 -14 -70 -20 -89 -5 -19 -8 -36 -7 -37 3 -3 130
144 350 403 59 70 119 140 132 155 l25 28 110 -55 c61 -30 110 -58 110 -61 0
-3 -12 -18 -28 -32 -15 -15 -111 -119 -212 -232 -102 -113 -231 -252 -286
-310 -221 -228 -247 -263 -334 -438 -44 -90 -80 -165 -80 -168 0 -6 -70 -147
-76 -153 -2 -2 -55 20 -119 50 -101 47 -114 56 -109 74 4 11 60 126 124 256
88 177 119 249 125 290 3 30 16 104 27 164 11 61 22 133 24 160 4 48 10 86 68
415 14 80 28 168 31 195 4 28 11 71 17 97 l10 47 121 -60 c67 -34 123 -62 124
-63z m-12234 -65 c66 -23 132 -75 179 -140 18 -25 67 -113 109 -196 68 -136
76 -158 85 -235 13 -113 1 -203 -34 -254 -37 -55 -111 -110 -203 -154 -43 -20
-79 -40 -79 -44 0 -3 63 -130 140 -281 l140 -274 -115 -57 c-63 -31 -117 -56
-119 -56 -3 0 -16 21 -29 47 -205 404 -297 590 -297 603 0 8 -18 47 -39 85
-97 173 -373 737 -365 745 16 15 396 203 438 216 60 19 125 17 189 -5z"/>
<path d="M10605 3253 c-55 -14 -88 -57 -99 -128 -18 -114 -61 -930 -51 -981 9
-52 40 -82 90 -90 133 -19 173 47 175 286 1 47 12 242 26 433 25 366 24 400
-14 445 -31 35 -76 47 -127 35z"/>
<path d="M12573 2820 c-18 -52 -46 -133 -63 -180 -17 -47 -42 -116 -55 -155
-12 -38 -30 -87 -39 -107 -9 -21 -16 -48 -16 -61 0 -13 -11 -51 -25 -85 -32
-78 -31 -89 3 -95 15 -3 45 -10 67 -15 22 -5 61 -12 87 -15 l47 -4 5 36 c8 55
29 658 25 721 l-4 55 -32 -95z"/>
<path d="M4166 2355 c-37 -13 -71 -26 -74 -30 -5 -5 19 -69 73 -200 7 -16 29
-73 50 -125 63 -164 55 -157 155 -107 57 28 67 37 78 72 17 51 3 137 -40 250
-39 102 -66 142 -102 155 -42 15 -63 12 -140 -15z"/>
<path d="M3305 1978 c-16 -6 -39 -19 -51 -29 -11 -11 -24 -19 -30 -19 -5 0
-15 -4 -23 -9 -11 -7 -7 -22 20 -77 18 -38 32 -72 31 -75 -1 -4 28 -63 64
-130 36 -68 74 -145 86 -171 11 -27 25 -48 30 -48 4 0 40 16 78 35 126 63 130
98 32 294 -88 173 -104 199 -139 222 -31 21 -54 22 -98 7z"/>
<path d="M3920 7985 l0 -116 33 -15 c17 -8 50 -26 72 -39 22 -14 43 -25 48
-25 4 0 7 24 7 53 0 42 -5 58 -25 79 -13 15 -45 58 -70 97 -25 38 -50 73 -55
76 -6 4 -10 -36 -10 -110z"/>
<path d="M14732 7973 l-44 -45 -3 -89 c-2 -49 -1 -89 3 -89 3 0 26 7 49 16
l43 17 0 118 c0 66 -1 119 -2 118 -2 0 -23 -21 -46 -46z"/>
<path d="M4530 6729 c0 -6 6 -34 14 -62 8 -29 20 -78 27 -110 14 -63 24 -72
97 -84 38 -7 38 -5 12 79 -11 34 -20 71 -20 80 0 9 -15 25 -33 37 -18 11 -43
31 -56 45 -26 28 -41 33 -41 15z"/>
</g>
</svg>
